<svg id="Capa_1" data-name="Capa 1" xmlns="http://www.w3.org/2000/svg" viewBox="0 0 192 147"><path d="M73.18,84.91l8.11-4.16C87.16,89,94.92,91.9,104.77,89.4c-9.28-12.65-9.24-25.2-.12-37.87a20,20,0,0,0-13.25.33,20.19,20.19,0,0,0-10.21,8.66L73,56.26a28.08,28.08,0,0,1,8-9.07c9.7-6.86,20-7.79,30.68-2.59a2.08,2.08,0,0,0,2.14,0,29.07,29.07,0,0,1,38.3,11c.1.17.19.35.34.65l-8.18,4.24a20.26,20.26,0,0,0-12.92-9.46,19.57,19.57,0,0,0-10.54.48c9,12.61,9.13,25.13-.1,37.84a32.61,32.61,0,0,0,3.26.71c8.07,1,14.54-1.79,19.34-8.35.6-.81,1-.92,1.87-.46,2.29,1.24,4.64,2.4,7.09,3.65-.21.37-.36.69-.56,1-6.49,9.55-15.44,14.24-27,13.58a25.88,25.88,0,0,1-11-3.17,1.72,1.72,0,0,0-1.86,0A29,29,0,0,1,73.61,85.7C73.47,85.47,73.35,85.23,73.18,84.91Zm39.49-28c-7.07,6.89-7.64,19.34,0,27.22C120.13,76.83,120.06,63.88,112.67,56.91Z"/><path d="M120.68,109.49v13.82h-3.61v-18.9c1.61,0,3.23,0,4.84,0,.27,0,.58.41.79.69,2.3,3.2,4.58,6.42,6.87,9.63.17.24.35.47.71.94V104.46h3.64v18.91a21,21,0,0,1-2.51,0,1.67,1.67,0,0,1-.89-.71q-4.34-6-8.65-12c-.31-.43-.63-.85-1-1.27Z"/><path d="M92,123.38c.17-.45.28-.76.41-1.06,2.51-5.66,5-11.3,7.5-17a1.33,1.33,0,0,1,1.51-1c1.15.08,2.31,0,3.47,0a1.17,1.17,0,0,1,.85.48q4.1,9.1,8.14,18.24s0,.06,0,.24c-1.28,0-2.58,0-3.88,0-.21,0-.49-.32-.61-.55a16.5,16.5,0,0,1-1-2.23,1.26,1.26,0,0,0-1.42-1c-2.69,0-5.37,0-8.06,0a1.11,1.11,0,0,0-1.21.8c-.4,1-.64,2.29-1.39,2.76s-2.1.16-3.18.19C92.79,123.39,92.48,123.38,92,123.38Zm11-15.16-3.21,7.52h6.57Z"/><path d="M140.77,123.3V104.47h13.14v3.71h-9.38V112h8.72v3.81h-8.74v3.77h10.81v3.72Z"/><path d="M75.66,123.32H72V104.48h3.63v6.65h9.57v-6.64h3.67V123.3H85.29v-8.2H75.66Z"/><path d="M65.05,116.42l2.86,2c-1,3.16-5.45,5.71-9.17,5.29a9.71,9.71,0,0,1-8.64-8.89,9.82,9.82,0,0,1,7.14-10.35A9.41,9.41,0,0,1,68,109.61l-2.9,2.09c-2.52-3.38-4.55-4.31-7.32-3.39a6,6,0,0,0,0,11.39C60.52,120.58,62.65,119.62,65.05,116.42Z"/><path d="M160.69,104.46h3.6v15.13h10.34v3.73H160.69Z"/></svg>