<svg id="Capa_1" data-name="Capa 1" xmlns="http://www.w3.org/2000/svg" viewBox="0 0 192 106"><path d="M49,18.8c2,.25,3.92.45,5.87.76A35.32,35.32,0,0,1,71,26,28.8,28.8,0,0,1,81.84,43.43c1.89,8.61,1.17,17-3.1,24.78-5.44,10-14.08,15-25.34,15.27-10.58.24-21.16.07-31.75.09-3.57,0-7.13,0-10.7,0a7.25,7.25,0,0,1-1.5-.3v-.55a5.17,5.17,0,0,1,1.18-.41c.84-.09,1.7,0,2.55-.12,2.16-.16,4.33-.26,6.47-.56a3.1,3.1,0,0,0,2.81-2.93,14.48,14.48,0,0,0,.19-2.37q0-14.59,0-29.2,0-11.26,0-22.52a3.41,3.41,0,0,0-2.74-3.7,17.35,17.35,0,0,0-3-.48c-1.49-.15-3-.2-4.47-.35-.94-.1-1.05-.38-.64-1.27ZM33.64,51.41v1.65q0,13.45,0,26.91c0,1.27.24,1.63,1.31,1.63a127.26,127.26,0,0,0,16.45-.54c3.86-.5,7.45-1.63,10.37-4.35a24.28,24.28,0,0,0,5.69-7.45C72.21,59.07,73,48.65,69,38c-3.33-8.78-9.41-14.34-18.74-16.19-5.08-1-10.21-.78-15.33-.75-1,0-1.29.48-1.29,1.61Z"/><path d="M174.26,58.36a.38.38,0,0,0-.14.11c-1.33,2.56-3.11,2.69-4.76.35-1.15-1.63-2-1.87-3.55-.65a24.54,24.54,0,0,0-3.56,3.5,7.07,7.07,0,0,0-1.5,4.62c0,4.42,0,8.85.07,13.27,0,1.92.75,2.62,2.63,2.85.91.11,1.82.14,2.73.27.23,0,.42.32.63.49a2,2,0,0,1-.67.28q-8.65,0-17.3,0c-.26,0-.52-.26-.78-.4a2.3,2.3,0,0,1,.74-.39c.87-.11,1.77-.09,2.64-.22,1.87-.29,2.61-1.1,2.69-3,.06-1.64,0-3.29,0-4.94q0-7,0-14c0-2-.89-2.69-2.87-2.16-.67.18-1.32.47-2,.61a3.06,3.06,0,0,1-1-.19c.25-.25.45-.63.76-.75,1.51-.58,3.07-1,4.55-1.66,1.82-.77,3.59-1.68,5.37-2.53,1.37-.65,1.88-.36,1.89,1.14,0,2.06,0,4.13.2,6.28.16-.23.31-.46.47-.68,1.29-1.74,2.52-3.53,3.89-5.19a6.09,6.09,0,0,1,3.77-2.1c2.36-.36,4,.62,5.18,3.07Z"/><path d="M126.79,52.3a17.89,17.89,0,0,1,8.64,1.92c4.64,2.45,6.76,6.58,7.5,11.58,1.56,10.49-5.84,17-14.31,18.17a20.56,20.56,0,0,1-7.46-.24c-6.3-1.44-9.87-5.48-11-11.74a16.21,16.21,0,0,1,9.25-18.28A18.22,18.22,0,0,1,126.79,52.3ZM136,68.79c0-.6-.06-1.7-.19-2.79a16.46,16.46,0,0,0-3.31-8.86c-3.36-4.15-10.82-4.62-14,1.35a16.67,16.67,0,0,0-1.81,7.76,20,20,0,0,0,3.19,11.81,9,9,0,0,0,5,3.9c3.57,1,7.7-1,9.48-4.68A18.55,18.55,0,0,0,136,68.79Z"/><path d="M99.77,67.24V79c0,2.52.72,3.33,3.23,3.58.7.07,1.41,0,2.1.13.24,0,.45.28.68.43-.23.12-.47.35-.7.35-2.35,0-4.7,0-7,0H88.42a3,3,0,0,1-.73,0c-.14,0-.37-.24-.36-.32s.2-.42.34-.44A8.88,8.88,0,0,1,89,82.58c3.37,0,4.18-.82,4.18-4.16q0-8.92,0-17.85c0-2.17-.91-2.83-3-2.21-.73.22-1.46.45-2.2.6-.21,0-.47-.14-.71-.23.15-.22.25-.56.46-.66a9.18,9.18,0,0,1,1.56-.51,34.09,34.09,0,0,0,7.9-3.34c2.22-1.26,2.59-1,2.58,1.49C99.76,59.55,99.77,63.4,99.77,67.24Z"/><path d="M100.29,38.1a4.23,4.23,0,1,1-4.17-4.28A4.19,4.19,0,0,1,100.29,38.1Z"/></svg>