<svg id="Capa_1" data-name="Capa 1" xmlns="http://www.w3.org/2000/svg" viewBox="0 0 349 96"><path d="M323.77,70.84c0-2.48-.1-4.75.08-7,0-.5,1-1.16,1.66-1.36a22.26,22.26,0,0,0,9.82-5.54c6.71-6.71,6.62-16.54-.21-23.16-8.52-8.26-23.57-8-31.8.54a15.71,15.71,0,0,0-.1,22.19,19.93,19.93,0,0,0,10.34,5.9c1.6.37,2.1,1.05,2,2.63-.13,1.87,0,3.75,0,5.62-11,.21-22.84-9.73-24.95-20.75C288.78,40.59,291.82,33,299,27c10.77-9,27.66-9.53,39.13-1.45C353.6,36.42,352.4,57.61,335.78,67A29.45,29.45,0,0,1,323.77,70.84Z"/><path d="M94.6,70.14l20.86-40.52c1.54,3.16,2.91,5.84,4.13,8.59.22.49-.12,1.31-.39,1.89-1.08,2.25-2.24,4.45-3.52,7h16.45c-4.11-8.61-8.12-17-12.31-25.75,2.91,0,5.45,0,8,0a2,2,0,0,1,1.32,1q12,23.46,23.84,47c.09.17,0,.43,0,.84-2.82,0-5.62.1-8.4-.08-.65,0-1.44-1-1.81-1.66q-3.08-5.85-5.93-11.82A2.47,2.47,0,0,0,134.23,55c-7,.06-14,0-21,.09a3.37,3.37,0,0,0-2.38,1.47c-2.17,3.92-4.19,7.93-6.17,11.95a2.61,2.61,0,0,1-2.81,1.71C99.61,70.05,97.33,70.14,94.6,70.14Z"/><path d="M163.44,21.32c2.5,0,4.85-.07,7.2.05a3.15,3.15,0,0,1,1.88,1c12.56,13.55,25.16,27.05,37.5,40.8,1.31,1.45,1.06,4.3,1.59,6.74-3.69.33-6.36.63-8.92-2.27-9.59-10.8-19.5-21.31-29.29-31.93-.51-.55-1-1.08-1.88-2V69.94h-8.08Z"/><path d="M58,66.31C51.88,56.46,45.92,47,40,37.43l-.51.07V70h-8V21.33c2.39,0,4.8-.09,7.2.06.57,0,1.27.73,1.63,1.3q10.88,17.4,21.65,34.87a2.56,2.56,0,0,1,.14,2.19C60.92,61.87,59.55,63.88,58,66.31Z"/><path d="M225,51.6c.77,0,1.38,0,2,0,4-.35,7,.29,9.79,4.23,4.88,6.82,12.64,8.25,20.67,7.34A33,33,0,0,0,265.73,61c4.66-1.87,5.69-4,5-9.5H253.55v-8h25.57v7c0,12.43-3.83,17.38-16.14,19.83-9.92,2-19.53,1.09-28.22-4.74C229.62,62.13,225.59,56.44,225,51.6Z"/><path d="M76.07,37.5,67.18,51.59c-1.52-2.4-2.94-4.51-4.19-6.72A2.24,2.24,0,0,1,63.25,43Q69.51,32.7,75.88,22.45a2.55,2.55,0,0,1,1.74-1.08c2.26-.13,4.54-.05,7-.05V70H76.77V37.66Z"/><path d="M224.08,43.18a21.15,21.15,0,0,1,4.68-11.52c11-14.06,35.71-15.45,48.48-2.52L271,34.67a24,24,0,0,0-21.77-6.06c-8.23,1.62-14.06,6.18-16.39,14.57Z"/><path d="M203,21.41H211v31c-2.58-2.46-5.17-4.91-7.73-7.4a1.29,1.29,0,0,1-.2-.85C203,36.64,203,29.15,203,21.41Z"/></svg>