<svg id="Capa_1" data-name="Capa 1" xmlns="http://www.w3.org/2000/svg" viewBox="0 0 500 500"><path d="M368,337.63c-.71,2.19-1.43,4.38-2.09,6.42L288.1,266.77,366,189.46c.54,1.64,1.25,3.83,2,6Z"/><path d="M125.46,177.65c3-.67,5.61-1.26,8.2-1.76a13.1,13.1,0,0,1,2.51-.07q105,0,210,.06c3.43,0,6.86.88,10.28,1.35l.11.92c-.6.64-1.2,1.28-1.82,1.9q-53.08,53.37-106.18,106.72c-4.94,5-9.7,5-14.59.08L127.62,180C127,179.37,126.49,178.75,125.46,177.65Z"/><path d="M278.9,277.93,357,355.44c-3.06.68-5.61,1.29-8.19,1.77a15.86,15.86,0,0,1-3,.08H136.61a22.55,22.55,0,0,1-10.86-2.22l77.83-77.23c.24.22.91.81,1.54,1.44q9.23,9.29,18.46,18.56c10.41,10.45,24.87,10.43,35.31,0C265.66,291.09,272.44,284.36,278.9,277.93Z"/><path d="M114.19,344.06c-.57-2.92-1.68-6-1.69-9.07q-.16-68.4,0-136.8c0-3.09,1.1-6.18,1.67-9.17l78.09,77.55Z"/></svg>