<svg id="Capa_1" data-name="Capa 1" xmlns="http://www.w3.org/2000/svg" viewBox="0 0 500 500"><path d="M92.07,254.91a3.73,3.73,0,0,1-2.84-1.06,4.08,4.08,0,0,1-1-2.92V211.14a3.93,3.93,0,0,1,1.06-2.94,4,4,0,0,1,2.92-1,4.71,4.71,0,0,1,2.61.63A5.73,5.73,0,0,1,96.58,210l16.35,30.26h-2.12L127.16,210a5.77,5.77,0,0,1,1.72-2.15,4.56,4.56,0,0,1,2.58-.63,3.8,3.8,0,0,1,2.85,1,4.07,4.07,0,0,1,1,2.94v39.79a4.2,4.2,0,0,1-1,2.92,4.39,4.39,0,0,1-5.72,0,4.12,4.12,0,0,1-1-2.92V220.28h1.46l-13.9,25.36a5.39,5.39,0,0,1-1.39,1.65,3.29,3.29,0,0,1-2,.53,3.5,3.5,0,0,1-2-.56,5,5,0,0,1-1.39-1.62l-14-25.43h1.59v30.72a4.2,4.2,0,0,1-1,2.92A3.72,3.72,0,0,1,92.07,254.91Z"/><path d="M148.88,215.38a5.17,5.17,0,0,1-3.61-1.16,4.68,4.68,0,0,1,0-6.45,6.38,6.38,0,0,1,7.25,0,4.76,4.76,0,0,1,0,6.45A5.17,5.17,0,0,1,148.88,215.38Zm0,39.46a3.88,3.88,0,0,1-3-1.19,4.8,4.8,0,0,1-1.06-3.31V226a4.75,4.75,0,0,1,1.06-3.34,3.93,3.93,0,0,1,3-1.16A4,4,0,0,1,152,222.7a4.67,4.67,0,0,1,1.1,3.34v24.3a4.85,4.85,0,0,1-1.06,3.31A4,4,0,0,1,148.88,254.84Z"/><path d="M165.89,254.91a3.84,3.84,0,0,1-4.24-4.24v-25a4.22,4.22,0,0,1,1.06-3.11,4.72,4.72,0,0,1,6,0,4.22,4.22,0,0,1,1.06,3.11v4.17h-.66a10.09,10.09,0,0,1,3.64-6,13.76,13.76,0,0,1,7.21-2.45,2.59,2.59,0,0,1,2.22.7,3.92,3.92,0,0,1,1,2.54,3.48,3.48,0,0,1-.76,2.69,4,4,0,0,1-2.68,1.22l-1.46.13a9.55,9.55,0,0,0-6.09,2.49,8,8,0,0,0-2.05,5.85v13.71a4.31,4.31,0,0,1-1.06,3.14A4.14,4.14,0,0,1,165.89,254.91Z"/><path d="M197.93,255a14,14,0,0,1-6.25-1.36,10.8,10.8,0,0,1-4.31-3.67,9.24,9.24,0,0,1-1.55-5.23,8.23,8.23,0,0,1,1.85-5.66,11.12,11.12,0,0,1,6-3,54.3,54.3,0,0,1,11.18-.92h3.32v4.76H205a43.25,43.25,0,0,0-6.55.4,6.68,6.68,0,0,0-3.48,1.36,3.5,3.5,0,0,0-1,2.68,4.59,4.59,0,0,0,1.53,3.57,6,6,0,0,0,4.23,1.39,7.37,7.37,0,0,0,3.88-1,7.49,7.49,0,0,0,2.68-2.82,8.29,8.29,0,0,0,1-4.1v-7.61c0-2.21-.49-3.8-1.45-4.77s-2.61-1.46-4.9-1.46a20.29,20.29,0,0,0-4.14.47,22.06,22.06,0,0,0-4.67,1.59,3.27,3.27,0,0,1-2.22.33,2.51,2.51,0,0,1-1.49-1.1,3.31,3.31,0,0,1-.53-1.82,4,4,0,0,1,.53-1.95,3.22,3.22,0,0,1,1.79-1.42,29.5,29.5,0,0,1,5.86-1.79,28.28,28.28,0,0,1,5.13-.53A18.43,18.43,0,0,1,209,222.8a9.73,9.73,0,0,1,4.6,4.4,16.53,16.53,0,0,1,1.52,7.58v15.89a4.51,4.51,0,0,1-1,3.14,3.66,3.66,0,0,1-2.85,1.1,3.74,3.74,0,0,1-2.88-1.1,4.43,4.43,0,0,1-1-3.14v-3.18h.53a8.94,8.94,0,0,1-5.23,6.62A11.27,11.27,0,0,1,197.93,255Z"/><path d="M238.45,255a18,18,0,0,1-8.87-2.09,14.34,14.34,0,0,1-5.83-5.92,18.81,18.81,0,0,1-2.05-9,19.76,19.76,0,0,1,1.16-7,14.32,14.32,0,0,1,3.34-5.23,14.81,14.81,0,0,1,5.3-3.31,19.83,19.83,0,0,1,6.95-1.16,20.7,20.7,0,0,1,4.73.6,16,16,0,0,1,4.8,2,3.13,3.13,0,0,1,1.39,1.59,3.51,3.51,0,0,1-.69,3.54,2.65,2.65,0,0,1-1.56.86,3.16,3.16,0,0,1-2.05-.43,12.75,12.75,0,0,0-3-1.29,10.91,10.91,0,0,0-2.91-.43,9.71,9.71,0,0,0-3.84.7,7.75,7.75,0,0,0-2.82,2,8.64,8.64,0,0,0-1.75,3.21,14.91,14.91,0,0,0-.6,4.44,11.68,11.68,0,0,0,2.35,7.71,8.19,8.19,0,0,0,6.66,2.82,11.35,11.35,0,0,0,2.88-.4,13,13,0,0,0,3-1.26,3,3,0,0,1,2-.4,2.69,2.69,0,0,1,1.49.9,3.11,3.11,0,0,1,.73,1.65,3.72,3.72,0,0,1-.23,1.89,3.15,3.15,0,0,1-1.36,1.52,16.21,16.21,0,0,1-4.64,1.92A19.43,19.43,0,0,1,238.45,255Z"/><path d="M266.45,255a13.5,13.5,0,0,1-6.68-1.49,9.1,9.1,0,0,1-3.94-4.47,18.71,18.71,0,0,1-1.29-7.41v-16a3.68,3.68,0,0,1,4.1-4.17,4.31,4.31,0,0,1,3.08,1,4.1,4.1,0,0,1,1.09,3.14V241.8a7.83,7.83,0,0,0,1.39,5.09,5.47,5.47,0,0,0,4.44,1.66,7.1,7.1,0,0,0,5.43-2.28,8.59,8.59,0,0,0,2.11-6.06V225.64a3.68,3.68,0,0,1,4.11-4.17,4.31,4.31,0,0,1,3.08,1,4.1,4.1,0,0,1,1.09,3.14v25c0,2.82-1.35,4.24-4,4.24a4,4,0,0,1-3-1.1,4.35,4.35,0,0,1-1.06-3.14v-5l.93,2A11,11,0,0,1,266.45,255Z"/><path d="M304.12,255q-5.49,0-8.27-3.15t-2.78-9.23V211.34a4.22,4.22,0,0,1,1.06-3.11,4.13,4.13,0,0,1,3-1.06,4.26,4.26,0,0,1,3.08,1.06,4.15,4.15,0,0,1,1.09,3.11v30.92a6.64,6.64,0,0,0,1.29,4.5,4.67,4.67,0,0,0,3.68,1.46q.53,0,1,0l.93-.1a1.1,1.1,0,0,1,1.26.49,6.39,6.39,0,0,1,.33,2.55,4.35,4.35,0,0,1-.67,2.58,3,3,0,0,1-2.18,1.13l-1.39.13A14.27,14.27,0,0,1,304.12,255Z"/><path d="M328.62,255a17.84,17.84,0,0,1-8.74-2,14.33,14.33,0,0,1-5.76-5.86,18.62,18.62,0,0,1-2.05-9,19.56,19.56,0,0,1,1.16-7,14.77,14.77,0,0,1,3.34-5.29,14.36,14.36,0,0,1,5.23-3.38,19.09,19.09,0,0,1,6.82-1.16,17.89,17.89,0,0,1,8.74,2,14.37,14.37,0,0,1,5.76,5.83,18.5,18.5,0,0,1,2.05,8.94,20,20,0,0,1-1.16,7,14.82,14.82,0,0,1-3.34,5.33,14.44,14.44,0,0,1-5.23,3.38A19.13,19.13,0,0,1,328.62,255Zm0-6.29A7.42,7.42,0,0,0,335.8,244a14.75,14.75,0,0,0,1-5.86c0-3.54-.75-6.17-2.25-7.92a7.48,7.48,0,0,0-6-2.61,8,8,0,0,0-4.31,1.16,7.59,7.59,0,0,0-2.88,3.51,14.73,14.73,0,0,0-1,5.86q0,5.22,2.25,7.91A7.39,7.39,0,0,0,328.62,248.75Z"/><path d="M363.71,255a13.52,13.52,0,0,1-6.69-1.49,9.1,9.1,0,0,1-3.94-4.47,18.71,18.71,0,0,1-1.29-7.41v-16a3.68,3.68,0,0,1,4.1-4.17,4.3,4.3,0,0,1,3.08,1,4.1,4.1,0,0,1,1.09,3.14V241.8a7.83,7.83,0,0,0,1.39,5.09,5.47,5.47,0,0,0,4.44,1.66,7.07,7.07,0,0,0,5.43-2.28,8.59,8.59,0,0,0,2.12-6.06V225.64a3.68,3.68,0,0,1,4.1-4.17,4.3,4.3,0,0,1,3.08,1,4.1,4.1,0,0,1,1.09,3.14v25c0,2.82-1.34,4.24-4,4.24a4,4,0,0,1-3-1.1,4.35,4.35,0,0,1-1.05-3.14v-5l.92,2A11,11,0,0,1,363.71,255Z"/><path d="M402.17,255a32.57,32.57,0,0,1-6-.6,18,18,0,0,1-5.69-2.05,3.88,3.88,0,0,1-1.49-1.56,3.15,3.15,0,0,1-.33-1.78,2.89,2.89,0,0,1,.66-1.56,2.6,2.6,0,0,1,1.46-.86,2.94,2.94,0,0,1,1.95.33,22.7,22.7,0,0,0,5,1.75,21.11,21.11,0,0,0,4.57.5,8.29,8.29,0,0,0,4.73-1.09,3.37,3.37,0,0,0,1.56-2.88,2.85,2.85,0,0,0-1-2.35,7,7,0,0,0-3.08-1.22l-6.62-1.26a11.53,11.53,0,0,1-6.26-3,7.87,7.87,0,0,1-2.15-5.72,8.87,8.87,0,0,1,1.76-5.5A11.24,11.24,0,0,1,396,222.6a19,19,0,0,1,7.15-1.26,22.71,22.71,0,0,1,5.46.63,20.16,20.16,0,0,1,4.94,1.95,2.87,2.87,0,0,1,1.35,1.39,2.81,2.81,0,0,1,.17,1.76,3.72,3.72,0,0,1-.79,1.59,2.55,2.55,0,0,1-1.5.86,3.27,3.27,0,0,1-2-.37,18.56,18.56,0,0,0-3.94-1.52,15.08,15.08,0,0,0-3.61-.46,8.25,8.25,0,0,0-4.8,1.12,3.51,3.51,0,0,0-1.56,3,3.14,3.14,0,0,0,.93,2.32,5.25,5.25,0,0,0,2.85,1.26l6.62,1.25a12.48,12.48,0,0,1,6.52,2.92,7.49,7.49,0,0,1,2.22,5.69,8.86,8.86,0,0,1-3.78,7.58Q408.47,255,402.17,255Z"/></svg>